HIERARCHY
ROOT Hips
{
  OFFSET 196.326 95.9168 97.7182
  CHANNELS 6 Xposition Yposition Zposition Zrotation Xrotation Yrotation
  JOINT LeftUpLeg
  {
    OFFSET 8.64259 1.95398 -2.38835
    CHANNELS 3 Zrotation Xrotation Yrotation
    JOINT LeftLeg
    {
      OFFSET 43.7702 0 0
      CHANNELS 3 Zrotation Xrotation Yrotation
      JOINT LeftFoot
      {
        OFFSET 40.6238 0 0
        CHANNELS 3 Zrotation Xrotation Yrotation
        JOINT LeftToeBase
        {
          OFFSET 12.7242 0 0
          CHANNELS 3 Zrotation Xrotation Yrotation
          End Site
          {
            OFFSET 0 0 0
          }
        }
      }
    }
  }
  JOINT RightUpLeg
  {
    OFFSET -8.2249 1.95398 -2.59336
    CHANNELS 3 Zrotation Xrotation Yrotation
    JOINT RightLeg
    {
      OFFSET 43.5653 0 0
      CHANNELS 3 Zrotation Xrotation Yrotation
      JOINT RightFoot
      {
        OFFSET 40.6238 0 0
        CHANNELS 3 Zrotation Xrotation Yrotation
        JOINT RightToeBase
        {
          OFFSET 12.7242 0 0
          CHANNELS 3 Zrotation Xrotation Yrotation
          End Site
          {
            OFFSET 0 0 0
          }
        }
      }
    }
  }
  JOINT Spine
  {
    OFFSET 0.165834 0.87714 6.61349
    CHANNELS 3 Zrotation Xrotation Yrotation
    JOINT Spine1
    {
      OFFSET 7.38963 1.71661e-005 0
      CHANNELS 3 Zrotation Xrotation Yrotation
      JOINT Spine2
      {
        OFFSET 11.9445 1.14441e-005 0
        CHANNELS 3 Zrotation Xrotation Yrotation
        JOINT Spine3
        {
          OFFSET 14.7254 4.19617e-005 0
          CHANNELS 3 Zrotation Xrotation Yrotation
          JOINT Spine4
          {
            OFFSET 10.9679 0 0
            CHANNELS 3 Zrotation Xrotation Yrotation
            JOINT RightShoulder
            {
              OFFSET 2.46616 -1.6653 3.69651
              CHANNELS 3 Zrotation Xrotation Yrotation
              JOINT RightArm
              {
                OFFSET 13.0012 0 0
                CHANNELS 3 Zrotation Xrotation Yrotation
                JOINT RightForeArm
                {
                  OFFSET 28.7848 1.52588e-005 0
                  CHANNELS 3 Zrotation Xrotation Yrotation
                  JOINT RightHand
                  {
                    OFFSET 26.5688 1.52588e-005 0
                    CHANNELS 3 Zrotation Xrotation Yrotation
                    End Site
                    {
                      OFFSET 0 0 0
                    }
                  }
                }
              }
            }
            JOINT LeftShoulder
            {
              OFFSET 2.38034 -1.29275 -3.75231
              CHANNELS 3 Zrotation Xrotation Yrotation
              JOINT LeftArm
              {
                OFFSET 16.3182 6.10351e-005 0
                CHANNELS 3 Zrotation Xrotation Yrotation
                JOINT LeftForeArm
                {
                  OFFSET 27.0901 0 0
                  CHANNELS 3 Zrotation Xrotation Yrotation
                  JOINT LeftHand
                  {
                    OFFSET 24.5451 1.52588e-005 0
                    CHANNELS 3 Zrotation Xrotation Yrotation
                    End Site
                    {
                      OFFSET 0 0 0
                    }
                  }
                }
              }
            }
            JOINT Neck
            {
              OFFSET 5.0226 -0.0266342 0
              CHANNELS 3 Zrotation Xrotation Yrotation
              JOINT Head
              {
                OFFSET 6.69363 2.86102e-005 0
                CHANNELS 3 Zrotation Xrotation Yrotation
                End Site
                {
                  OFFSET 0 0 0
                }
              }
            }
          }
        }
      }
    }
  }
}
MOTION
Frames:	13
Frame Time:	0.0416667
-53.0238 97.0728 45.1199 -55.3224 -84.3584 -54.1439 -171.459 7.13524 91.865 -7.37153 6.86308 -0.960939 59.4004 4.85418 14.2583 36.9098 7.77593 -36.8546 178.268 6.76185 90.2979 -9.39155 9.05786 -0.140874 63.1615 -1.85394 -0.997546 29.674 -1.03493 19.4901 -0.106833 6.64775 -90.0281 13.5784 -0.225473 -0.0270842 1.90746 -0.22645 -0.0171397 -20.6278 -0.20691 -0.0935976 -0.615187 -0.206915 -0.0936065 80.9278 -50.0873 -114.485 25.6682 -12.2229 2.81149 -3.62431 -14.4423 -36.3583 -7.79906 -0.701172 4.64974 -102.126 -42.0025 57.5128 -29.9076 10.2702 3.9254 2.98223 9.87567 -29.1981 12.0295 1.02139 4.41357 8.47141 -22.8088 4.60011 -10.1636 -23.1388 -5.53811 
-53.0069 97.0668 45.2019 -53.7261 -84.4484 -52.5135 -171.451 7.19641 91.8992 -7.35652 7.09094 -0.987641 59.2552 4.80004 14.4885 37.5598 8.11178 -37.7915 178.22 6.73732 90.2954 -9.30625 9.24688 -0.0639348 63.2639 -1.89203 -1.02135 29.7704 -1.02334 19.6854 -0.0891976 6.6337 -90.0338 13.6065 -0.19325 -0.0425348 1.93553 -0.194935 -0.0339936 -20.5997 -0.171534 -0.098648 -0.587063 -0.171538 -0.0986572 80.7863 -50.5301 -114.524 25.495 -12.2689 2.93557 -3.68536 -14.8162 -36.2586 -8.64493 -0.764687 4.67577 -102.251 -41.91 57.2769 -29.7636 10.1754 3.96289 2.9512 9.63268 -29.2061 11.0829 0.965476 4.56193 9.44931 -16.7066 2.60766 -8.61915 -16.8744 -2.59553 
-53.002 97.0803 45.2614 -52.5641 -84.4659 -51.3877 -171.424 6.90825 91.8714 -6.68373 7.14804 -1.0346 59.0366 4.89384 14.5948 37.6801 8.16104 -38.3136 178.246 7.20499 90.2654 -10.0985 9.37602 -0.118572 62.8311 -1.58973 -0.833312 30.2252 -0.920136 19.8087 -0.0598098 6.60662 -90.0412 13.6606 -0.138541 -0.0644101 1.98964 -0.141238 -0.0582538 -20.5456 -0.112783 -0.103075 -0.532903 -0.112775 -0.103061 80.8384 -50.5864 -114.426 25.6038 -12.129 3.07368 -4.04321 -15.0175 -36.303 -8.6942 -0.762252 4.56557 -101.99 -41.7384 57.6005 -29.9691 10.2551 3.71134 3.0586 10.0878 -29.0674 11.6936 0.942387 3.99658 10.8011 -11.3052 0.907332 -8.97676 -11.2455 -0.440551 
-53.0171 97.0683 45.3069 -50.8934 -84.6296 -49.7235 -171.477 7.10079 91.8527 -7.03854 7.29115 -0.99791 59.1563 4.85686 14.4908 37.4184 8.03733 -37.701 178.205 6.90234 90.27 -9.63906 9.5484 -0.0682612 63.1632 -1.78649 -0.954009 29.6894 -1.03809 19.63 -0.0348385 6.59443 -90.0679 13.6849 -0.102057 -0.122638 2.01399 -0.107353 -0.118039 -20.5211 -0.0604762 -0.147637 -0.508479 -0.06048 -0.147649 81.0111 -50.2814 -114.287 25.8483 -11.8304 3.18796 -4.04361 -14.8148 -36.4244 -8.42377 -0.757991 4.82009 -101.795 -41.9696 58.0104 -29.8066 10.3813 3.27518 3.03336 10.2151 -29.0698 12.1487 1.04167 4.50136 11.401 -6.93985 0.425345 -9.07614 -6.8949 1.07909 
-53.028 97.0629 45.3449 -49.6411 -84.8257 -48.4498 -171.469 7.16089 91.8864 -7.21937 7.582 -1.01323 59.3 4.89478 14.3801 37.6269 8.16702 -37.2921 178.137 6.71898 90.2697 -9.44147 9.79137 0.0255268 63.371 -1.90658 -1.02983 29.5052 -1.10529 20.0046 -0.0236335 6.57616 -90.0869 13.7215 -0.0890576 -0.162412 2.05051 -0.0961175 -0.158346 -20.4846 -0.0361284 -0.181672 -0.471909 -0.0361332 -0.181678 80.771 -50.1254 -114.703 25.8558 -11.6306 3.51926 -3.63574 -14.7125 -36.3119 -8.81227 -0.764173 4.49221 -101.896 -42.0679 57.8985 -30.0187 9.93831 3.53107 3.54659 10.6465 -29.363 11.0607 0.966961 4.59161 11.4804 -3.27351 0.293698 -9.19536 -3.30106 1.70089 
-53.0457 97.1233 45.3473 -48.6877 -85.0066 -47.5104 -171.442 6.7921 91.9015 -6.56706 7.5001 -1.00218 59.1897 4.97637 14.0708 36.8657 7.72981 -37.6512 178.094 7.57544 90.2862 -11.0113 11.2933 0.113637 62.3215 -1.25217 -0.622983 30.9854 -0.816262 21.4523 -0.0176243 6.58056 -90.0882 13.7152 -0.0778319 -0.166559 2.04422 -0.0850828 -0.16297 -20.4909 -0.024181 -0.182243 -0.478206 -0.02418 -0.182255 80.8985 -50.165 -114.498 25.6581 -11.6506 3.3172 -3.13731 -14.3048 -36.0918 -8.9888 -0.67555 3.0084 -102.16 -42.2678 57.5846 -29.8834 9.82913 3.62908 3.30632 10.0922 -29.1232 10.7165 0.912429 4.35582 11.6282 -0.607965 -0.722744 -9.09067 -0.487372 3.33497 
-53.0445 97.1118 45.3476 -48.0314 -85.0022 -46.8492 -171.455 6.81142 91.9003 -6.43713 7.80567 -1.03519 58.7893 4.84328 14.5496 37.974 8.34148 -37.8253 178.15 7.3907 90.2912 -10.6186 10.8957 0.0422563 62.5208 -1.38208 -0.704484 30.6662 -0.877064 21.048 0.0119038 6.58413 -90.0799 13.7207 -0.0151588 -0.157886 2.0497 -0.0220841 -0.157076 -20.4854 0.0329859 -0.155143 -0.472729 0.0329957 -0.155143 81.0402 -50.2858 -114.243 25.6718 -11.5584 3.06898 -3.34717 -14.8347 -36.2946 -8.33002 -0.695666 3.93202 -102.05 -42.3557 57.793 -29.8271 9.94809 3.52295 3.27669 10.3757 -28.8741 10.8138 0.877575 3.99364 11.7265 1.67376 -1.73385 -8.6083 1.964 5.2262 
-53.0649 97.1211 45.3527 -47.1418 -85.041 -45.9338 -171.435 6.87652 91.9412 -6.48628 7.89374 -1.03155 58.8676 4.75555 14.5593 37.8088 8.22061 -38.551 178.149 7.26391 90.2999 -10.3842 10.5845 0.0413104 62.5257 -1.44078 -0.741108 30.4969 -0.899145 20.6553 0.0327842 6.5856 -90.0934 13.7053 0.0196195 -0.189637 2.03431 0.0112573 -0.190327 -20.5008 0.0757063 -0.174969 -0.488109 0.0757071 -0.174976 81.0736 -50.2841 -114.194 25.5456 -11.6104 2.99771 -3.8375 -14.7501 -36.1392 -8.46576 -0.719232 4.15171 -101.913 -42.4714 58.0577 -29.8283 10.0572 3.3719 3.24204 10.4358 -28.8554 10.751 0.844613 3.7462 12.515 3.86669 -0.931334 -8.9105 3.91282 4.47239 
-53.1056 97.0914 45.3161 -46.7447 -85.073 -45.5547 -171.421 6.68206 91.9502 -6.15619 7.87688 -1.03461 58.9842 4.63421 13.5426 37.2001 7.9992 -34.9675 178.16 7.02517 90.3106 -9.95589 10.3819 0.0235099 62.8444 -1.63743 -0.862508 30.2329 -0.942628 20.2457 0.0415107 6.58231 -90.0864 13.7093 0.0403905 -0.178346 2.0383 0.0324921 -0.179961 -20.4968 0.0921143 -0.157959 -0.484125 0.0921125 -0.157971 80.5926 -50.6276 -114.771 25.2956 -11.73 3.37042 -3.07191 -14.0208 -36.3301 -9.55668 -0.762705 3.77363 -101.812 -42.4413 58.2015 -29.9702 10.0292 3.52973 3.36842 10.4581 -29.1454 10.4734 0.821853 3.72153 13.1165 4.87226 -1.34182 -8.33301 5.03188 3.67031 
-53.28 97.0708 45.2167 -43.8439 -85.4685 -42.7669 -171.322 7.11335 92.01 -6.91145 8.34446 -1.17888 59.1274 4.74068 14.1737 37.5371 8.10575 -37.5722 178.23 6.54729 90.3461 -9.35927 10.4699 -0.0752113 63.5769 -1.96809 -1.06327 29.3634 -1.12899 19.8278 0.021819 6.61546 -90.0812 13.6429 0.00389048 -0.163115 1.97197 -0.0032899 -0.163139 -20.5631 0.0527316 -0.154406 -0.550461 0.0527343 -0.154409 80.7218 -50.5316 -114.618 25.5304 -11.5957 3.40468 -2.94248 -14.2064 -36.2597 -9.58616 -0.745845 3.51527 -101.911 -42.4304 58.0422 -30.046 9.73895 3.41837 3.6348 10.8912 -28.9641 10.4493 0.812305 3.65155 13.0001 5.06761 -1.46503 -3.05864 5.43051 3.96589 
-53.2409 97.064 45.2518 -42.6539 -85.4885 -41.581 -171.317 7.06488 91.9886 -6.73983 8.62297 -1.22483 59.047 4.82301 14.4853 37.1517 7.88688 -37.7358 178.185 6.53266 90.309 -9.2887 10.5035 -0.0384554 63.3793 -1.88603 -1.01313 29.6328 -1.05858 19.7298 0.0537822 6.63592 -90.0964 13.6021 0.0599579 -0.200772 1.93114 0.0510652 -0.203226 -20.6039 0.117522 -0.173469 -0.591289 0.117525 -0.173473 81.0537 -50.4431 -114.163 25.6313 -11.5951 3.32961 -3.33654 -14.8056 -36.0157 -8.91909 -0.755428 4.23438 -102.359 -42.5193 57.3929 -29.8767 9.73426 3.51489 3.56752 10.6586 -29.0939 10.5791 0.85747 3.96778 14.2571 4.64657 -0.845923 2.05598 4.94193 2.64132 
-53.2919 97.0894 45.2907 -40.2175 -85.5581 -39.2568 -171.331 6.90455 91.9102 -6.23386 8.95071 -1.27642 58.485 4.60923 14.7241 37.7468 8.21512 -37.8108 178.116 6.7959 90.2137 -9.69998 10.7822 0.000124067 63.2368 -1.75575 -0.934524 29.9566 -0.991273 19.9129 0.0394119 6.6514 -90.069 13.5711 0.0446916 -0.144075 1.90013 0.0383111 -0.14591 -20.635 0.0859274 -0.123985 -0.622333 0.0859311 -0.123983 80.7687 -50.7316 -114.473 25.4327 -11.5259 3.31941 -3.51174 -14.5901 -35.9855 -8.96779 -0.743174 4.01579 -102.488 -42.3798 57.131 -29.7776 10.0006 3.60741 3.22729 10.2755 -28.9423 10.6693 0.871398 4.03058 15.7167 4.05914 -1.32365 7.28428 4.60745 2.37622 
-53.2894 97.0701 45.3713 -39.5114 -85.5577 -38.5773 -171.331 6.8182 91.8743 -6.19965 8.50688 -1.23975 59.1473 4.96153 13.9775 36.3104 7.4358 -36.8559 178.069 6.79211 90.1824 -9.72376 11.026 0.0466787 63.4659 -1.80604 -0.964923 29.588 -1.11344 20.4842 0.0356774 6.65013 -90.0648 13.5736 0.0393907 -0.134878 1.90267 0.0334139 -0.136481 -20.6325 0.078104 -0.1168 -0.619805 0.0780977 -0.116809 80.7448 -50.7388 -114.505 25.5034 -11.4687 3.41357 -3.42542 -14.2822 -36.1899 -9.09991 -0.767145 4.25708 -102.555 -42.2358 56.961 -29.9769 9.82161 3.70823 3.33533 10.3838 -28.8129 10.6586 0.848245 3.83605 17.8444 3.69524 -1.72806 10.2962 4.4484 2.37909 
